<svg width="256" height="256" viewBox="0 0 256 256" fill="none" xmlns="http://www.w3.org/2000/svg">
<rect width="256" height="256" rx="10" fill="#836DC6"/>
<path d="M31.0149 166V89H58.4049C64.3083 89 69.2949 89.88 73.3649 91.64C77.4349 93.4 80.5149 96.1133 82.6049 99.78C84.7316 103.447 85.7949 108.14 85.7949 113.86C85.7949 119.653 84.7499 124.438 82.6599 128.215C80.5699 131.955 77.5083 134.742 73.4749 136.575C69.4416 138.372 64.5283 139.27 58.7349 139.27H45.0949V166H31.0149ZM45.0949 127.5H57.0849C61.8883 127.5 65.4816 126.418 67.8649 124.255C70.2849 122.092 71.4949 118.7 71.4949 114.08C71.4949 109.46 70.2666 106.087 67.8099 103.96C65.3899 101.833 61.7049 100.77 56.7549 100.77H45.0949V127.5ZM129.872 167.54C122.539 167.54 116.012 165.89 110.292 162.59C104.572 159.253 100.081 154.597 96.8173 148.62C93.5539 142.607 91.9223 135.567 91.9223 127.5C91.9223 119.433 93.5539 112.412 96.8173 106.435C100.081 100.422 104.572 95.765 110.292 92.465C116.012 89.1283 122.539 87.46 129.872 87.46C137.206 87.46 143.732 89.1283 149.452 92.465C155.172 95.765 159.664 100.422 162.927 106.435C166.191 112.412 167.822 119.433 167.822 127.5C167.822 135.567 166.191 142.607 162.927 148.62C159.664 154.597 155.172 159.253 149.452 162.59C143.732 165.89 137.206 167.54 129.872 167.54ZM129.872 153.9C135.006 153.9 139.296 152.763 142.742 150.49C146.189 148.217 148.774 145.1 150.497 141.14C152.221 137.143 153.082 132.597 153.082 127.5C153.082 122.403 152.221 117.875 150.497 113.915C148.774 109.918 146.189 106.783 142.742 104.51C139.296 102.237 135.006 101.1 129.872 101.1C124.739 101.1 120.449 102.237 117.002 104.51C113.556 106.783 110.971 109.918 109.247 113.915C107.524 117.875 106.662 122.403 106.662 127.5C106.662 132.597 107.524 137.143 109.247 141.14C110.971 145.1 113.556 148.217 117.002 150.49C120.449 152.763 124.739 153.9 129.872 153.9ZM202.446 167.54C199.33 167.54 196.121 167.228 192.821 166.605C189.521 166.018 186.46 165.303 183.636 164.46C180.813 163.58 178.576 162.737 176.926 161.93L178.576 146.97C181.143 148.217 183.82 149.372 186.606 150.435C189.393 151.498 192.253 152.36 195.186 153.02C198.12 153.68 201.09 154.01 204.096 154.01C207.836 154.01 210.843 153.277 213.116 151.81C215.39 150.343 216.526 148.107 216.526 145.1C216.526 142.79 215.885 140.938 214.601 139.545C213.318 138.115 211.356 136.85 208.716 135.75C206.076 134.613 202.703 133.33 198.596 131.9C194.49 130.47 190.805 128.857 187.541 127.06C184.278 125.227 181.693 122.917 179.786 120.13C177.88 117.343 176.926 113.787 176.926 109.46C176.926 105.207 177.971 101.43 180.061 98.13C182.151 94.7933 185.268 92.19 189.411 90.32C193.591 88.4133 198.78 87.46 204.976 87.46C209.67 87.46 214.143 87.9917 218.396 89.055C222.65 90.0817 226.28 91.2 229.286 92.41L227.856 106.82C223.53 104.877 219.46 103.41 215.646 102.42C211.87 101.393 208.02 100.88 204.096 100.88C199.99 100.88 196.818 101.558 194.581 102.915C192.345 104.272 191.226 106.307 191.226 109.02C191.226 111.183 191.85 112.925 193.096 114.245C194.343 115.565 196.121 116.702 198.431 117.655C200.741 118.572 203.51 119.543 206.736 120.57C212.31 122.33 216.985 124.273 220.761 126.4C224.575 128.49 227.435 131.038 229.341 134.045C231.285 137.015 232.256 140.7 232.256 145.1C232.256 147.3 231.908 149.702 231.211 152.305C230.515 154.872 229.14 157.31 227.086 159.62C225.033 161.93 222.026 163.837 218.066 165.34C214.143 166.807 208.936 167.54 202.446 167.54Z" fill="white"/>
</svg>
