<svg width="256" height="256" viewBox="0 0 256 256" fill="none" xmlns="http://www.w3.org/2000/svg">
<rect width="256" height="256" rx="10" fill="#1C0F0D"/>
<path d="M107.11 92.025L113.035 85.65L131.335 103.05L125.41 109.425L107.11 92.025ZM105.535 109.05C100.535 109.05 96.0847 107.925 92.1847 105.675C88.2847 103.4 85.2222 100.225 82.9972 96.15C80.7722 92.05 79.6597 87.25 79.6597 81.75C79.6597 76.25 80.7722 71.4625 82.9972 67.3875C85.2222 63.2875 88.2847 60.1125 92.1847 57.8625C96.0847 55.5875 100.535 54.45 105.535 54.45C110.535 54.45 114.985 55.5875 118.885 57.8625C122.785 60.1125 125.847 63.2875 128.072 67.3875C130.297 71.4625 131.41 76.25 131.41 81.75C131.41 87.25 130.297 92.05 128.072 96.15C125.847 100.225 122.785 103.4 118.885 105.675C114.985 107.925 110.535 109.05 105.535 109.05ZM105.535 99.75C109.035 99.75 111.96 98.975 114.31 97.425C116.66 95.875 118.422 93.75 119.597 91.05C120.772 88.325 121.36 85.225 121.36 81.75C121.36 78.275 120.772 75.1875 119.597 72.4875C118.422 69.7625 116.66 67.625 114.31 66.075C111.96 64.525 109.035 63.75 105.535 63.75C102.035 63.75 99.1097 64.525 96.7597 66.075C94.4097 67.625 92.6472 69.7625 91.4722 72.4875C90.2972 75.1875 89.7097 78.275 89.7097 81.75C89.7097 85.225 90.2972 88.325 91.4722 91.05C92.6472 93.75 94.4097 95.875 96.7597 97.425C99.1097 98.975 102.035 99.75 105.535 99.75ZM139.792 108V55.5H158.992C162.617 55.5 165.78 56.075 168.48 57.225C171.205 58.375 173.317 60.125 174.817 62.475C176.317 64.825 177.067 67.8 177.067 71.4C177.067 75.25 176.242 78.3125 174.592 80.5875C172.967 82.8375 170.817 84.625 168.142 85.95L179.992 108H169.267L159.142 88.5C159.067 88.5 159.005 88.5 158.955 88.5C158.905 88.5 158.842 88.5 158.767 88.5H149.392V108H139.792ZM149.392 80.475H156.442C160.392 80.475 163.142 79.675 164.692 78.075C166.242 76.45 167.017 74.4 167.017 71.925C167.017 69.3 166.255 67.25 164.73 65.775C163.205 64.275 160.567 63.525 156.817 63.525H149.392V80.475ZM26.5017 199L33.7767 146.5H41.6517L54.4767 170.425L67.2267 146.5H75.1017L82.3767 199H72.4017L67.3767 159.55L70.0017 160.075L54.4767 187.975L38.8767 160.15L41.5017 159.625L36.4767 199H26.5017ZM91.086 199V146.5H124.686V155.8H100.911V166.975H119.361V176.275H100.911V189.7H125.436V199H91.086ZM133.713 199V146.5H143.163L165.588 180.4V146.5H175.188V199H167.313L143.313 163V199H133.713ZM207.89 200.05C202.965 200.05 198.89 199.075 195.665 197.125C192.465 195.175 190.078 192.437 188.503 188.912C186.928 185.387 186.14 181.25 186.14 176.5V146.5H195.74V174.025C195.74 176.525 195.903 178.812 196.228 180.887C196.553 182.937 197.14 184.712 197.99 186.212C198.865 187.687 200.103 188.825 201.703 189.625C203.303 190.425 205.365 190.825 207.89 190.825C210.415 190.825 212.478 190.425 214.078 189.625C215.678 188.825 216.903 187.687 217.753 186.212C218.628 184.712 219.228 182.937 219.553 180.887C219.878 178.812 220.04 176.525 220.04 174.025V146.5H229.64V176.5C229.64 181.25 228.853 185.387 227.278 188.912C225.703 192.437 223.303 195.175 220.078 197.125C216.878 199.075 212.815 200.05 207.89 200.05Z" fill="white"/>
</svg>
