<svg width="256" height="256" viewBox="0 0 256 256" fill="none" xmlns="http://www.w3.org/2000/svg">
<rect width="256" height="256" rx="10" fill="#EF0000"/>
<path d="M56.7009 153L37.2759 125.25L56.7009 100.5H67.9509L48.3759 125.25L67.9509 153H56.7009ZM26.9259 153V100.5H36.5259V153H26.9259ZM73.9474 153V100.5H83.5474V153H73.9474ZM117.839 154.05C112.839 154.05 108.389 152.925 104.489 150.675C100.589 148.4 97.5269 145.225 95.3019 141.15C93.0769 137.05 91.9644 132.25 91.9644 126.75C91.9644 121.25 93.0769 116.462 95.3019 112.387C97.5269 108.287 100.589 105.112 104.489 102.862C108.389 100.587 112.839 99.45 117.839 99.45C122.839 99.45 127.289 100.587 131.189 102.862C135.089 105.112 138.152 108.287 140.377 112.387C142.602 116.462 143.714 121.25 143.714 126.75C143.714 132.25 142.602 137.05 140.377 141.15C138.152 145.225 135.089 148.4 131.189 150.675C127.289 152.925 122.839 154.05 117.839 154.05ZM117.839 144.75C121.339 144.75 124.264 143.975 126.614 142.425C128.964 140.875 130.727 138.75 131.902 136.05C133.077 133.325 133.664 130.225 133.664 126.75C133.664 123.275 133.077 120.187 131.902 117.487C130.727 114.762 128.964 112.625 126.614 111.075C124.264 109.525 121.339 108.75 117.839 108.75C114.339 108.75 111.414 109.525 109.064 111.075C106.714 112.625 104.952 114.762 103.777 117.487C102.602 120.187 102.014 123.275 102.014 126.75C102.014 130.225 102.602 133.325 103.777 136.05C104.952 138.75 106.714 140.875 109.064 142.425C111.414 143.975 114.339 144.75 117.839 144.75ZM167.322 154.05C165.197 154.05 163.009 153.838 160.759 153.413C158.509 153.013 156.422 152.525 154.497 151.95C152.572 151.35 151.047 150.775 149.922 150.225L151.047 140.025C152.797 140.875 154.622 141.662 156.522 142.387C158.422 143.112 160.372 143.7 162.372 144.15C164.372 144.6 166.397 144.825 168.447 144.825C170.997 144.825 173.047 144.325 174.597 143.325C176.147 142.325 176.922 140.8 176.922 138.75C176.922 137.175 176.484 135.912 175.609 134.962C174.734 133.987 173.397 133.125 171.597 132.375C169.797 131.6 167.497 130.725 164.697 129.75C161.897 128.775 159.384 127.675 157.159 126.45C154.934 125.2 153.172 123.625 151.872 121.725C150.572 119.825 149.922 117.4 149.922 114.45C149.922 111.55 150.634 108.975 152.059 106.725C153.484 104.45 155.609 102.675 158.434 101.4C161.284 100.1 164.822 99.45 169.047 99.45C172.247 99.45 175.297 99.8125 178.197 100.537C181.097 101.237 183.572 102 185.622 102.825L184.647 112.65C181.697 111.325 178.922 110.325 176.322 109.65C173.747 108.95 171.122 108.6 168.447 108.6C165.647 108.6 163.484 109.062 161.959 109.987C160.434 110.912 159.672 112.3 159.672 114.15C159.672 115.625 160.097 116.812 160.947 117.712C161.797 118.612 163.009 119.387 164.584 120.037C166.159 120.662 168.047 121.325 170.247 122.025C174.047 123.225 177.234 124.55 179.809 126C182.409 127.425 184.359 129.162 185.659 131.212C186.984 133.237 187.647 135.75 187.647 138.75C187.647 140.25 187.409 141.887 186.934 143.662C186.459 145.412 185.522 147.075 184.122 148.65C182.722 150.225 180.672 151.525 177.972 152.55C175.297 153.55 171.747 154.05 167.322 154.05ZM225.378 153L205.953 125.25L225.378 100.5H236.628L217.053 125.25L236.628 153H225.378ZM195.603 153V100.5H205.203V153H195.603Z" fill="white"/>
</svg>
