<svg width="256" height="256" viewBox="0 0 256 256" fill="none" xmlns="http://www.w3.org/2000/svg">
<rect width="256" height="256" rx="10" fill="#21F14F"/>
<path d="M75.1683 166L46.6783 125.3L75.1683 89H91.6683L62.9583 125.3L91.6683 166H75.1683ZM31.4983 166V89H45.5783V166H31.4983ZM100.463 166V89H129.283C136.616 89 143.143 90.54 148.863 93.62C154.583 96.6633 159.075 101.063 162.338 106.82C165.601 112.54 167.233 119.433 167.233 127.5C167.233 135.567 165.601 142.478 162.338 148.235C159.075 153.955 154.583 158.355 148.863 161.435C143.143 164.478 136.616 166 129.283 166H100.463ZM114.543 153.46H129.283C134.27 153.46 138.431 152.415 141.768 150.325C145.105 148.235 147.617 145.247 149.303 141.36C150.99 137.473 151.833 132.853 151.833 127.5C151.833 122.147 150.99 117.527 149.303 113.64C147.617 109.753 145.105 106.765 141.768 104.675C138.431 102.585 134.27 101.54 129.283 101.54H114.543V153.46ZM201.963 167.54C198.846 167.54 195.638 167.228 192.338 166.605C189.038 166.018 185.976 165.303 183.153 164.46C180.33 163.58 178.093 162.737 176.443 161.93L178.093 146.97C180.66 148.217 183.336 149.372 186.123 150.435C188.91 151.498 191.77 152.36 194.703 153.02C197.636 153.68 200.606 154.01 203.613 154.01C207.353 154.01 210.36 153.277 212.633 151.81C214.906 150.343 216.043 148.107 216.043 145.1C216.043 142.79 215.401 140.938 214.118 139.545C212.835 138.115 210.873 136.85 208.233 135.75C205.593 134.613 202.22 133.33 198.113 131.9C194.006 130.47 190.321 128.857 187.058 127.06C183.795 125.227 181.21 122.917 179.303 120.13C177.396 117.343 176.443 113.787 176.443 109.46C176.443 105.207 177.488 101.43 179.578 98.13C181.668 94.7933 184.785 92.19 188.928 90.32C193.108 88.4133 198.296 87.46 204.493 87.46C209.186 87.46 213.66 87.9917 217.913 89.055C222.166 90.0817 225.796 91.2 228.803 92.41L227.373 106.82C223.046 104.877 218.976 103.41 215.163 102.42C211.386 101.393 207.536 100.88 203.613 100.88C199.506 100.88 196.335 101.558 194.098 102.915C191.861 104.272 190.743 106.307 190.743 109.02C190.743 111.183 191.366 112.925 192.613 114.245C193.86 115.565 195.638 116.702 197.948 117.655C200.258 118.572 203.026 119.543 206.253 120.57C211.826 122.33 216.501 124.273 220.278 126.4C224.091 128.49 226.951 131.038 228.858 134.045C230.801 137.015 231.773 140.7 231.773 145.1C231.773 147.3 231.425 149.702 230.728 152.305C230.031 154.872 228.656 157.31 226.603 159.62C224.55 161.93 221.543 163.837 217.583 165.34C213.66 166.807 208.453 167.54 201.963 167.54Z" fill="black"/>
</svg>
