<svg width="256" height="256" viewBox="0 0 256 256" fill="none" xmlns="http://www.w3.org/2000/svg">
<rect width="256" height="256" rx="10" fill="#836DC6"/>
<path d="M40.8791 111L30.0441 72.5H37.3591L45.0591 99.835L53.6391 72.5H58.5341L67.4441 99.12L74.8141 72.5H82.1291L70.8541 111H64.6391L56.0591 85.315L47.5341 111H40.8791ZM105.711 101.87H89.5958V95.71H105.711V101.87ZM96.7458 79.375H98.5608L87.4508 111H80.6308L94.3258 72.5H100.981L114.676 111H107.856L96.7458 79.375ZM119.076 111V72.5H126.116V111H119.076ZM142.078 111V79.32H131.188V72.5H160.008V79.32H149.118V111H142.078ZM165.052 111V72.5H189.692V79.32H172.257V87.515H185.787V94.335H172.257V104.18H190.242V111H165.052ZM196.312 111V72.5H210.392C213.05 72.5 215.37 72.9217 217.35 73.765C219.348 74.6083 220.897 75.8917 221.997 77.615C223.097 79.3383 223.647 81.52 223.647 84.16C223.647 86.9833 223.042 89.2292 221.832 90.8975C220.64 92.5475 219.064 93.8583 217.102 94.83L225.792 111H217.927L210.502 96.7C210.447 96.7 210.401 96.7 210.365 96.7C210.328 96.7 210.282 96.7 210.227 96.7H203.352V111H196.312ZM203.352 90.815H208.522C211.419 90.815 213.435 90.2283 214.572 89.055C215.709 87.8633 216.277 86.36 216.277 84.545C216.277 82.62 215.718 81.1167 214.6 80.035C213.481 78.935 211.547 78.385 208.797 78.385H203.352V90.815Z" fill="white"/>
<path d="M56.7381 182V126H76.6581C80.9515 126 84.5781 126.64 87.5381 127.92C90.4981 129.2 92.7381 131.173 94.2581 133.84C95.8048 136.507 96.5781 139.92 96.5781 144.08C96.5781 148.293 95.8181 151.773 94.2981 154.52C92.7781 157.24 90.5515 159.267 87.6181 160.6C84.6848 161.907 81.1115 162.56 76.8981 162.56H66.9781V182H56.7381ZM66.9781 154H75.6981C79.1915 154 81.8048 153.213 83.5381 151.64C85.2981 150.067 86.1781 147.6 86.1781 144.24C86.1781 140.88 85.2848 138.427 83.4981 136.88C81.7381 135.333 79.0581 134.56 75.4581 134.56H66.9781V154ZM128.634 183.12C123.301 183.12 118.554 181.92 114.394 179.52C110.234 177.093 106.968 173.707 104.594 169.36C102.221 164.987 101.034 159.867 101.034 154C101.034 148.133 102.221 143.027 104.594 138.68C106.968 134.307 110.234 130.92 114.394 128.52C118.554 126.093 123.301 124.88 128.634 124.88C133.968 124.88 138.714 126.093 142.874 128.52C147.034 130.92 150.301 134.307 152.674 138.68C155.048 143.027 156.234 148.133 156.234 154C156.234 159.867 155.048 164.987 152.674 169.36C150.301 173.707 147.034 177.093 142.874 179.52C138.714 181.92 133.968 183.12 128.634 183.12ZM128.634 173.2C132.368 173.2 135.488 172.373 137.994 170.72C140.501 169.067 142.381 166.8 143.634 163.92C144.888 161.013 145.514 157.707 145.514 154C145.514 150.293 144.888 147 143.634 144.12C142.381 141.213 140.501 138.933 137.994 137.28C135.488 135.627 132.368 134.8 128.634 134.8C124.901 134.8 121.781 135.627 119.274 137.28C116.768 138.933 114.888 141.213 113.634 144.12C112.381 147 111.754 150.293 111.754 154C111.754 157.707 112.381 161.013 113.634 163.92C114.888 166.8 116.768 169.067 119.274 170.72C121.781 172.373 124.901 173.2 128.634 173.2ZM181.416 183.12C179.149 183.12 176.816 182.893 174.416 182.44C172.016 182.013 169.789 181.493 167.736 180.88C165.682 180.24 164.056 179.627 162.856 179.04L164.056 168.16C165.922 169.067 167.869 169.907 169.896 170.68C171.922 171.453 174.002 172.08 176.136 172.56C178.269 173.04 180.429 173.28 182.616 173.28C185.336 173.28 187.522 172.747 189.176 171.68C190.829 170.613 191.656 168.987 191.656 166.8C191.656 165.12 191.189 163.773 190.256 162.76C189.322 161.72 187.896 160.8 185.976 160C184.056 159.173 181.602 158.24 178.616 157.2C175.629 156.16 172.949 154.987 170.576 153.68C168.202 152.347 166.322 150.667 164.936 148.64C163.549 146.613 162.856 144.027 162.856 140.88C162.856 137.787 163.616 135.04 165.136 132.64C166.656 130.213 168.922 128.32 171.936 126.96C174.976 125.573 178.749 124.88 183.256 124.88C186.669 124.88 189.922 125.267 193.016 126.04C196.109 126.787 198.749 127.6 200.936 128.48L199.896 138.96C196.749 137.547 193.789 136.48 191.016 135.76C188.269 135.013 185.469 134.64 182.616 134.64C179.629 134.64 177.322 135.133 175.696 136.12C174.069 137.107 173.256 138.587 173.256 140.56C173.256 142.133 173.709 143.4 174.616 144.36C175.522 145.32 176.816 146.147 178.496 146.84C180.176 147.507 182.189 148.213 184.536 148.96C188.589 150.24 191.989 151.653 194.736 153.2C197.509 154.72 199.589 156.573 200.976 158.76C202.389 160.92 203.096 163.6 203.096 166.8C203.096 168.4 202.842 170.147 202.336 172.04C201.829 173.907 200.829 175.68 199.336 177.36C197.842 179.04 195.656 180.427 192.776 181.52C189.922 182.587 186.136 183.12 181.416 183.12Z" fill="white"/>
</svg>
