<svg width="256" height="256" viewBox="0 0 256 256" fill="none" xmlns="http://www.w3.org/2000/svg">
<rect width="256" height="256" rx="10" fill="#21F14F"/>
<path d="M51.1942 110V63.1H68.8822C73.4158 63.1 76.777 64.0715 78.9657 66.0145C81.1767 67.9352 82.2822 70.738 82.2822 74.423C82.2822 77.17 81.6568 79.4703 80.4062 81.324C79.1778 83.1553 77.3242 84.4953 74.8452 85.344V83.736C78.5972 84.54 81.4 86.014 83.2537 88.158C85.1073 90.302 86.0342 93.1383 86.0342 96.667C86.0342 100.888 84.6718 104.171 81.9472 106.516C79.2225 108.839 75.4928 110 70.7582 110H51.1942ZM59.7702 102.362H69.4852C71.8302 102.362 73.695 101.882 75.0797 100.921C76.4867 99.9612 77.1902 98.2303 77.1902 95.729C77.1902 93.183 76.4532 91.4522 74.9792 90.5365C73.5052 89.6208 71.6738 89.163 69.4852 89.163H59.7702V102.362ZM59.7702 81.525H67.6092C69.6862 81.525 71.2383 81.1007 72.2657 80.252C73.3153 79.4033 73.8402 78.041 73.8402 76.165C73.8402 74.222 73.3153 72.8373 72.2657 72.011C71.2383 71.1623 69.6862 70.738 67.6092 70.738H59.7702V81.525ZM118.729 98.878H99.0976V91.374H118.729V98.878ZM107.808 71.475H110.019L96.4846 110H88.1766L104.86 63.1H112.967L129.65 110H121.342L107.808 71.475ZM155.529 110.938C150.772 110.938 146.584 109.933 142.966 107.923C139.348 105.891 136.523 103.054 134.491 99.414C132.481 95.7513 131.476 91.4633 131.476 86.55C131.476 81.6367 132.514 77.3598 134.591 73.7195C136.691 70.0568 139.572 67.2205 143.234 65.2105C146.897 63.1782 151.085 62.162 155.797 62.162C158.276 62.162 160.543 62.43 162.597 62.966C164.652 63.4797 166.428 64.1273 167.924 64.909L166.986 73.083C165.289 72.3013 163.535 71.6648 161.726 71.1735C159.94 70.6598 157.941 70.403 155.73 70.403C152.447 70.403 149.7 71.0953 147.489 72.48C145.3 73.8647 143.648 75.7742 142.531 78.2085C141.414 80.6428 140.856 83.4233 140.856 86.55C140.856 89.6767 141.403 92.4572 142.497 94.8915C143.592 97.3258 145.222 99.2353 147.388 100.62C149.577 102.005 152.291 102.697 155.529 102.697C157.785 102.697 159.806 102.451 161.592 101.96C163.379 101.469 165.177 100.821 166.986 100.017L167.924 108.191C166.16 109.017 164.217 109.676 162.095 110.168C159.996 110.681 157.807 110.938 155.529 110.938ZM201.717 110L184.364 85.21L201.717 63.1H211.767L194.28 85.21L211.767 110H201.717ZM175.118 110V63.1H183.694V110H175.118ZM44.898 191.938C40.4313 191.938 36.456 190.933 32.972 188.923C29.488 186.891 26.7522 184.054 24.7645 180.414C22.7768 176.751 21.783 172.463 21.783 167.55C21.783 162.637 22.7768 158.36 24.7645 154.719C26.7522 151.057 29.488 148.22 32.972 146.21C36.456 144.178 40.4313 143.162 44.898 143.162C49.3647 143.162 53.34 144.178 56.824 146.21C60.308 148.22 63.0438 151.057 65.0315 154.719C67.0192 158.36 68.013 162.637 68.013 167.55C68.013 172.463 67.0192 176.751 65.0315 180.414C63.0438 184.054 60.308 186.891 56.824 188.923C53.34 190.933 49.3647 191.938 44.898 191.938ZM44.898 183.63C48.0247 183.63 50.6377 182.938 52.737 181.553C54.8363 180.168 56.4108 178.27 57.4605 175.858C58.5102 173.424 59.035 170.654 59.035 167.55C59.035 164.446 58.5102 161.687 57.4605 159.275C56.4108 156.841 54.8363 154.932 52.737 153.547C50.6377 152.162 48.0247 151.47 44.898 151.47C41.7713 151.47 39.1583 152.162 37.059 153.547C34.9597 154.932 33.3852 156.841 32.3355 159.275C31.2858 161.687 30.761 164.446 30.761 167.55C30.761 170.654 31.2858 173.424 32.3355 175.858C33.3852 178.27 34.9597 180.168 37.059 181.553C39.1583 182.938 41.7713 183.63 44.898 183.63ZM75.5013 191V144.1H104.378V152.408H84.0773V162.391H99.7553V170.699H84.0773V191H75.5013ZM110.702 191V144.1H139.579V152.408H119.278V162.391H134.956V170.699H119.278V191H110.702ZM145.904 191V144.1H154.48V191H145.904ZM186.052 191.938C181.295 191.938 177.107 190.933 173.489 188.923C169.871 186.891 167.046 184.054 165.014 180.414C163.004 176.751 161.999 172.463 161.999 167.55C161.999 162.637 163.037 158.36 165.114 154.719C167.214 151.057 170.095 148.22 173.757 146.21C177.42 144.178 181.607 143.162 186.32 143.162C188.799 143.162 191.066 143.43 193.12 143.966C195.175 144.48 196.95 145.127 198.447 145.909L197.509 154.083C195.811 153.301 194.058 152.665 192.249 152.173C190.463 151.66 188.464 151.403 186.253 151.403C182.97 151.403 180.223 152.095 178.012 153.48C175.823 154.865 174.17 156.774 173.054 159.208C171.937 161.643 171.379 164.423 171.379 167.55C171.379 170.677 171.926 173.457 173.02 175.891C174.115 178.326 175.745 180.235 177.911 181.62C180.1 183.005 182.813 183.697 186.052 183.697C188.307 183.697 190.329 183.451 192.115 182.96C193.902 182.469 195.7 181.821 197.509 181.017L198.447 189.191C196.682 190.017 194.739 190.676 192.618 191.168C190.518 191.681 188.33 191.938 186.052 191.938ZM205.641 191V144.1H235.657V152.408H214.418V162.391H230.9V170.699H214.418V182.692H236.327V191H205.641Z" fill="black"/>
</svg>
